# xmcd
#
# Track frame offsets:
# 151
# 19139
# 35478
# 52671
# 70196
# 83566
#
# Disc length: 1422 seconds
#
# Revision: 0
# Processed by: cddbd v1.4PL0 Copyright (c) Steve Scherf et al.
# Submitted via: Audion 3.0.2 (http://www.panic.com/audion/)
#
DISCID=3d058c06
DTITLE=20-20s - 05 - 03
DYEAR=1900
DGENRE=
TTITLE0=1. Devil in Me
TTITLE1=2. I'm The One
TTITLE2=3. Got Messed Up
TTITLE3=4. Such A Fool
TTITLE4=5.22 Days
TTITLE5=6.KingBee
EXTD=
EXTT0=
EXTT1=
EXTT2=
EXTT3=
EXTT4=
EXTT5=
PLAYORDER=
